<svg width="103" height="21" viewBox="0 0 103 21" fill="none" xmlns="http://www.w3.org/2000/svg">
<path fill-rule="evenodd" clip-rule="evenodd" d="M52.3913 5.80849C51.7928 5.23291 51.094 4.78595 50.2949 4.4676C49.499 4.14926 48.619 3.9917 47.6614 3.9917C46.7038 3.9917 45.8206 4.14926 45.015 4.4676C44.2094 4.78595 43.5106 5.23291 42.9186 5.80849C42.3265 6.38408 41.8671 7.06257 41.5436 7.83752C41.2168 8.61247 41.0551 9.47424 41.0551 10.4132C41.0551 11.3425 41.2168 12.1978 41.5436 12.9792C41.8704 13.7606 42.3265 14.4423 42.9186 15.0179C43.5106 15.5935 44.2094 16.0404 45.015 16.3588C45.8206 16.6771 46.7006 16.8347 47.6614 16.8347C48.619 16.8347 49.499 16.6771 50.2981 16.3588C51.0972 16.0404 51.796 15.5935 52.3946 15.0179C52.5596 14.8591 52.7142 14.6925 52.858 14.518C53.0006 14.6926 53.1535 14.8593 53.3166 15.0179C53.9087 15.5935 54.6075 16.0404 55.413 16.3588C56.2186 16.6771 57.0986 16.8347 58.0595 16.8347C59.0171 16.8347 59.8971 16.6771 60.6962 16.3588C61.4953 16.0404 62.1941 15.5935 62.7926 15.0179C63.3911 14.4423 63.8505 13.7638 64.1676 12.9792C64.4879 12.1978 64.6464 11.3361 64.6464 10.3939C64.6464 9.4646 64.4879 8.61247 64.1676 7.8343C63.8473 7.06257 63.3879 6.38408 62.7894 5.80849C62.1908 5.23291 61.492 4.78595 60.6929 4.4676C59.8971 4.14926 59.0171 3.9917 58.0595 3.9917C57.1018 3.9917 56.2186 4.14926 55.413 4.4676C54.6075 4.78595 53.9087 5.23291 53.3166 5.80849C53.1529 5.96765 52.9993 6.13468 52.856 6.30944C52.7117 6.13472 52.5568 5.96768 52.3913 5.80849ZM50.4372 11.6865C50.2884 12.0756 50.0781 12.4133 49.8064 12.7027C49.5346 12.9921 49.2143 13.2107 48.8487 13.3651C48.4832 13.5194 48.0852 13.5934 47.6582 13.5934C47.2214 13.5934 46.817 13.5162 46.4514 13.3651C46.0859 13.2107 45.7656 12.9921 45.4938 12.7027C45.2221 12.4133 45.0118 12.0756 44.8629 11.6865C44.7141 11.2975 44.6397 10.8762 44.6397 10.4164C44.6397 9.94693 44.7141 9.51926 44.8629 9.13661C45.0118 8.75396 45.2221 8.41954 45.4938 8.13013C45.7656 7.84073 46.0859 7.62207 46.4514 7.46773C46.817 7.31338 47.2214 7.23942 47.6582 7.23942C48.0852 7.23942 48.4799 7.3166 48.8487 7.46773C49.2143 7.62207 49.5346 7.84073 49.8064 8.13013C50.0781 8.41954 50.2884 8.75717 50.4372 9.14626C50.5861 9.53533 50.6605 9.95657 50.6605 10.4164C50.6605 10.873 50.5861 11.2975 50.4372 11.6865ZM60.2044 12.7027C60.4762 12.4133 60.6865 12.0756 60.8353 11.6865C60.9841 11.2975 61.0585 10.873 61.0585 10.4164C61.0585 9.95657 60.9841 9.53533 60.8353 9.14626C60.6865 8.75717 60.4762 8.41954 60.2044 8.13013C59.9327 7.84073 59.6124 7.62207 59.2468 7.46773C58.878 7.3166 58.4833 7.23942 58.0562 7.23942C57.6195 7.23942 57.2151 7.31338 56.8495 7.46773C56.4839 7.62207 56.1636 7.84073 55.8918 8.13013C55.6201 8.41954 55.4098 8.75396 55.261 9.13661C55.1122 9.51926 55.0377 9.94693 55.0377 10.4164C55.0377 10.8762 55.1122 11.2975 55.261 11.6865C55.4098 12.0756 55.6201 12.4133 55.8918 12.7027C56.1636 12.9921 56.4839 13.2107 56.8495 13.3651C57.2151 13.5162 57.6195 13.5934 58.0562 13.5934C58.4833 13.5934 58.8812 13.5194 59.2468 13.3651C59.6124 13.2107 59.9327 12.9921 60.2044 12.7027Z" fill="#394E62"/>
<path d="M40.0619 6.56736V4.31004H30.5115V7.46772H35.3125L30.0488 14.3844V16.661H40.256V13.6802H34.6914L40.0619 6.56736Z" fill="#394E62"/>
<path d="M72.3688 9.69934L69.0365 4.31004H65.9662V16.661H69.3568V13.3619C69.3568 12.2203 69.3309 11.2364 69.2759 10.4068L69.2619 10.2223C69.2587 10.1799 69.2555 10.1377 69.2523 10.0958L69.2468 10.0241L71.7185 13.9117H72.8896L75.439 9.98874C75.4346 10.0481 75.4298 10.107 75.425 10.1659C75.4158 10.2792 75.4066 10.3921 75.4002 10.5064C75.3484 11.3521 75.3193 12.3072 75.3193 13.3651V16.661H78.7098V4.31004H75.7463L72.3688 9.69934Z" fill="#394E62"/>
<path d="M98.5288 10.5354L103 16.661H98.7553L96.3418 13.1882L93.9445 16.661H80.7739V4.31004H89.8099V7.18476H84.145V9.03693H89.0981V11.7541H84.145V13.7863H90.0752V16.3845L94.3392 10.3392L89.9684 4.31004H94.213L96.5327 7.68317L98.7553 4.31004H102.822L98.5288 10.5354Z" fill="#394E62"/>
<path d="M12.3955 20.4128C12.0588 20.1493 11.8108 19.7744 11.7172 19.3301L8.88035 5.8276L6.30953 8.5427H6.35877C7.42101 8.5427 8.28194 9.3804 8.28194 10.414C8.28194 11.4475 7.42003 12.2843 6.35877 12.2843H1.94203C1.93551 12.2844 1.92899 12.2844 1.92247 12.2844C1.5056 12.2844 1.08795 12.1536 0.740108 11.8886C0.640662 11.813 0.549055 11.7281 0.466675 11.6353C0.37348 11.5304 0.294134 11.4177 0.228736 11.2993C0.0828037 11.0357 1.18711e-07 10.7342 1.18711e-07 10.414V10.4133C-0.000163092 9.95994 0.167968 9.50527 0.508435 9.14564L8.57206 0.631415C8.83876 0.337887 9.20208 0.122997 9.62696 0.0383738C10.6667 -0.168911 11.683 0.484322 11.8961 1.49698L14.733 14.9999L17.3045 12.2843H17.2539C16.1916 12.2843 15.3307 11.4466 15.3307 10.4131C15.3307 9.37949 16.1916 8.54179 17.2539 8.54179H21.6895C22.7517 8.54179 23.6126 9.37949 23.6126 10.4131C23.6126 10.6201 23.5781 10.8193 23.5143 11.0055C23.431 11.2494 23.2944 11.4803 23.1039 11.6816L15.0449 20.192C14.9421 20.3057 14.8249 20.4077 14.6952 20.495C14.3682 20.7157 13.9851 20.8268 13.6014 20.8268C13.5866 20.8268 13.5717 20.8267 13.5569 20.8263C13.4899 20.8249 13.4234 20.82 13.3578 20.8119C13.0148 20.7695 12.6807 20.6371 12.3955 20.4128Z" fill="url(#paint0_linear_5245_8771)"/>
<defs>
<linearGradient id="paint0_linear_5245_8771" x1="6.0737e-08" y1="10.4234" x2="23.6127" y2="10.4234" gradientUnits="userSpaceOnUse">
<stop stop-color="#3EF2C9"/>
<stop offset="1" stop-color="#1CDFD7"/>
</linearGradient>
</defs>
</svg>
